{"accessors":[{"bufferView":0,"componentType":5125,"count":900,"max":[429.0],"min":[0.0],"type":"SCALAR"},{"bufferView":1,"componentType":5126,"count":430,"max":[2.815000057220459,2.815000057220459,0.8479999899864197],"min":[0.08500000089406967,0.08500000089406967,0.7480000257492065],"type":"VEC3"},{"bufferView":2,"componentType":5126,"count":430,"max":[1.0,1.0,1.0],"min":[-1.0,-1.0,-1.0],"type":"VEC3"},{"bufferView":3,"componentType":5125,"count":36012,"max":[13070.0],"min":[0.0],"type":"SCALAR"},{"bufferView":4,"componentType":5126,"count":13071,"max":[3.4749999046325685,1.9998514652252198,0.6990482807159424],"min":[3.1649999618530275,1.4001485109329224,0.10095174610614777],"type":"VEC3"},{"bufferView":5,"componentType":5126,"count":13071,"max":[1.0,1.0,1.0],"min":[-1.0,-1.0,-1.0],"type":"VEC3"},{"bufferView":6,"componentType":5125,"count":7944,"max":[2162.0],"min":[0.0],"type":"SCALAR"},{"bufferView":7,"componentType":5126,"count":2163,"max":[0.1899999976158142,0.1899999976158142,0.024745536968111993],"min":[-0.1899999976158142,-0.1899999976158142,-0.024745536968111993],"type":"VEC3"},{"bufferView":8,"componentType":5126,"count":2163,"max":[1.0,1.0,0.9898214340209961],"min":[-1.0,-1.0,-0.9898214340209961],"type":"VEC3"},{"bufferView":9,"componentType":5125,"count":51654,"max":[12157.0],"min":[0.0],"type":"SCALAR"},{"bufferView":10,"componentType":5126,"count":12158,"max":[1.3648821115493775,1.3649705648422242,-1.5592329502105713],"min":[-1.3650000095367432,-1.3649705648422242,-1.6192330121994019],"type":"VEC3"},{"bufferView":11,"componentType":5126,"count":12158,"max":[1.0,0.9999784231185913,1.0],"min":[-1.0,-0.9999784231185913,-1.0],"type":"VEC3"},{"bufferView":12,"componentType":5125,"count":6039,"max":[2144.0],"min":[0.0],"type":"SCALAR"},{"bufferView":13,"componentType":5126,"count":2145,"max":[1.7000000476837159,1.2999694347381592,0.6200000047683716],"min":[-1.2999835014343262,-1.2999694347381592,-2.7755575615628916e-17],"type":"VEC3"},{"bufferView":14,"componentType":5126,"count":2145,"max":[1.0,1.0,1.0],"min":[-1.0,-1.0,-1.0],"type":"VEC3"},{"bufferView":15,"componentType":5125,"count":1584,"max":[611.0],"min":[0.0],"type":"SCALAR"},{"bufferView":16,"componentType":5126,"count":612,"max":[1.2599999904632569,1.2599999904632569,0.03999999910593033],"min":[-1.2599999904632569,-1.2599999904632569,-0.15000000596046449],"type":"VEC3"},{"bufferView":17,"componentType":5126,"count":612,"max":[1.0,1.0,1.0],"min":[-1.0,-1.0,-1.0],"type":"VEC3"},{"bufferView":18,"componentType":5125,"count":15888,"max":[4591.0],"min":[0.0],"type":"SCALAR"},{"bufferView":19,"componentType":5126,"count":4592,"max":[0.10999999940395355,0.10999999940395355,0.2800000011920929],"min":[-0.10999999940395355,-0.10999999940395355,0.0],"type":"VEC3"},{"bufferView":20,"componentType":5126,"count":4592,"max":[1.0,1.0,1.0],"min":[-1.0,-1.0,-1.0],"type":"VEC3"},{"bufferView":21,"componentType":5125,"count":15888,"max":[4591.0],"min":[0.0],"type":"SCALAR"},{"bufferView":22,"componentType":5126,"count":4592,"max":[0.10999999940395355,0.10999999940395355,0.2800000011920929],"min":[-0.10999999940395355,-0.10999999940395355,0.0],"type":"VEC3"},{"bufferView":23,"componentType":5126,"count":4592,"max":[1.0,1.0,1.0],"min":[-1.0,-1.0,-1.0],"type":"VEC3"},{"bufferView":24,"componentType":5125,"count":15888,"max":[4591.0],"min":[0.0],"type":"SCALAR"},{"bufferView":25,"componentType":5126,"count":4592,"max":[0.10999999940395355,0.10999999940395355,0.2800000011920929],"min":[-0.10999999940395355,-0.10999999940395355,0.0],"type":"VEC3"},{"bufferView":26,"componentType":5126,"count":4592,"max":[1.0,1.0,1.0],"min":[-1.0,-1.0,-1.0],"type":"VEC3"},{"bufferView":27,"componentType":5125,"count":15888,"max":[4591.0],"min":[0.0],"type":"SCALAR"},{"bufferView":28,"componentType":5126,"count":4592,"max":[0.10999999940395355,0.10999999940395355,0.2800000011920929],"min":[-0.10999999940395355,-0.10999999940395355,0.0],"type":"VEC3"},{"bufferView":29,"componentType":5126,"count":4592,"max":[1.0,1.0,1.0],"min":[-1.0,-1.0,-1.0],"type":"VEC3"},{"bufferView":30,"componentType":5125,"count":1752,"max":[663.0],"min":[0.0],"type":"SCALAR"},{"bufferView":31,"componentType":5126,"count":664,"max":[0.20000000298023225,0.7995337247848511,0.012000000104308129],"min":[-0.20000000298023225,-0.15000000596046449,-0.019999999552965165],"type":"VEC3"},{"bufferView":32,"componentType":5126,"count":664,"max":[1.0,1.0,1.0],"min":[-1.0,-1.0,-1.0],"type":"VEC3"},{"bufferView":33,"componentType":5125,"count":1404,"max":[568.0],"min":[0.0],"type":"SCALAR"},{"bufferView":34,"componentType":5126,"count":569,"max":[0.10000000149011612,1.2000000476837159,0.012000000104308129],"min":[-0.10000000149011612,-0.15000000596046449,-0.009999999776482582],"type":"VEC3"},{"bufferView":35,"componentType":5126,"count":569,"max":[1.0,1.0,1.0],"min":[-1.0,-1.0,-1.0],"type":"VEC3"},{"bufferView":36,"componentType":5125,"count":15888,"max":[4591.0],"min":[0.0],"type":"SCALAR"},{"bufferView":37,"componentType":5126,"count":4592,"max":[0.10999999940395355,0.10999999940395355,0.2800000011920929],"min":[-0.10999999940395355,-0.10999999940395355,0.0],"type":"VEC3"},{"bufferView":38,"componentType":5126,"count":4592,"max":[1.0,1.0,1.0],"min":[-1.0,-1.0,-1.0],"type":"VEC3"},{"bufferView":39,"componentType":5125,"count":15888,"max":[4591.0],"min":[0.0],"type":"SCALAR"},{"bufferView":40,"componentType":5126,"count":4592,"max":[0.10999999940395355,0.10999999940395355,0.2800000011920929],"min":[-0.10999999940395355,-0.10999999940395355,0.0],"type":"VEC3"},{"bufferView":41,"componentType":5126,"count":4592,"max":[1.0,1.0,1.0],"min":[-1.0,-1.0,-1.0],"type":"VEC3"},{"bufferView":42,"componentType":5125,"count":15888,"max":[4591.0],"min":[0.0],"type":"SCALAR"},{"bufferView":43,"componentType":5126,"count":4592,"max":[0.10999999940395355,0.10999999940395355,0.2800000011920929],"min":[-0.10999999940395355,-0.10999999940395355,0.0],"type":"VEC3"},{"bufferView":44,"componentType":5126,"count":4592,"max":[1.0,1.0,1.0],"min":[-1.0,-1.0,-1.0],"type":"VEC3"},{"bufferView":45,"componentType":5125,"count":15888,"max":[4591.0],"min":[0.0],"type":"SCALAR"},{"bufferView":46,"componentType":5126,"count":4592,"max":[0.10999999940395355,0.10999999940395355,0.2800000011920929],"min":[-0.10999999940395355,-0.10999999940395355,0.0],"type":"VEC3"},{"bufferView":47,"componentType":5126,"count":4592,"max":[1.0,1.0,1.0],"min":[-1.0,-1.0,-1.0],"type":"VEC3"},{"bufferView":48,"componentType":5125,"count":15888,"max":[4591.0],"min":[0.0],"type":"SCALAR"},{"bufferView":49,"componentType":5126,"count":4592,"max":[0.10999999940395355,0.10999999940395355,0.2800000011920929],"min":[-0.10999999940395355,-0.10999999940395355,0.0],"type":"VEC3"},{"bufferView":50,"componentType":5126,"count":4592,"max":[1.0,1.0,1.0],"min":[-1.0,-1.0,-1.0],"type":"VEC3"},{"bufferView":51,"componentType":5125,"count":15888,"max":[4591.0],"min":[0.0],"type":"SCALAR"},{"bufferView":52,"componentType":5126,"count":4592,"max":[0.10999999940395355,0.10999999940395355,0.2800000011920929],"min":[-0.10999999940395355,-0.10999999940395355,0.0],"type":"VEC3"},{"bufferView":53,"componentType":5126,"count":4592,"max":[1.0,1.0,1.0],"min":[-1.0,-1.0,-1.0],"type":"VEC3"},{"bufferView":54,"componentType":5125,"count":15888,"max":[4591.0],"min":[0.0],"type":"SCALAR"},{"bufferView":55,"componentType":5126,"count":4592,"max":[0.10999999940395355,0.10999999940395355,0.2800000011920929],"min":[-0.10999999940395355,-0.10999999940395355,0.0],"type":"VEC3"},{"bufferView":56,"componentType":5126,"count":4592,"max":[1.0,1.0,1.0],"min":[-1.0,-1.0,-1.0],"type":"VEC3"},{"bufferView":57,"componentType":5125,"count":420,"max":[171.0],"min":[0.0],"type":"SCALAR"},{"bufferView":58,"componentType":5126,"count":172,"max":[0.4650000035762787,1.534999966621399,0.5479999780654907],"min":[0.29499998688697817,1.3650000095367432,0.527999997138977],"type":"VEC3"},{"bufferView":59,"componentType":5126,"count":172,"max":[1.0,1.0,1.0],"min":[-1.0,-1.0,-1.0],"type":"VEC3"},{"bufferView":60,"componentType":5125,"count":420,"max":[171.0],"min":[0.0],"type":"SCALAR"},{"bufferView":61,"componentType":5126,"count":172,"max":[1.534999966621399,0.4650000035762787,0.5479999780654907],"min":[1.3650000095367432,0.29499998688697817,0.527999997138977],"type":"VEC3"},{"bufferView":62,"componentType":5126,"count":172,"max":[1.0,1.0,1.0],"min":[-1.0,-1.0,-1.0],"type":"VEC3"},{"bufferView":63,"componentType":5125,"count":420,"max":[171.0],"min":[0.0],"type":"SCALAR"},{"bufferView":64,"componentType":5126,"count":172,"max":[2.6050000190734865,1.534999966621399,0.5479999780654907],"min":[2.434999942779541,1.3650000095367432,0.527999997138977],"type":"VEC3"},{"bufferView":65,"componentType":5126,"count":172,"max":[1.0,1.0,1.0],"min":[-1.0,-1.0,-1.0],"type":"VEC3"},{"bufferView":66,"componentType":5125,"count":15888,"max":[4591.0],"min":[0.0],"type":"SCALAR"},{"bufferView":67,"componentType":5126,"count":4592,"max":[0.10999999940395355,0.10999999940395355,0.2800000011920929],"min":[-0.10999999940395355,-0.10999999940395355,0.0],"type":"VEC3"},{"bufferView":68,"componentType":5126,"count":4592,"max":[1.0,1.0,1.0],"min":[-1.0,-1.0,-1.0],"type":"VEC3"},{"bufferView":69,"componentType":5125,"count":12390,"max":[4929.0],"min":[0.0],"type":"SCALAR"},{"bufferView":70,"componentType":5126,"count":4930,"max":[3.0568931102752687,3.0128424167633058,0.8479999899864197],"min":[-0.11284247785806656,-0.11284247785806656,-6.888718382617315e-14],"type":"VEC3"},{"bufferView":71,"componentType":5126,"count":4930,"max":[1.0,1.0,1.0],"min":[-1.0,-1.0,-1.0],"type":"VEC3"},{"bufferView":72,"componentType":5125,"count":14010,"max":[5696.0],"min":[0.0],"type":"SCALAR"},{"bufferView":73,"componentType":5126,"count":5697,"max":[2.869999885559082,2.869999885559082,0.05000000074505806],"min":[0.029999999329447748,0.029999999329447748,-0.12999999523162843],"type":"VEC3"},{"bufferView":74,"componentType":5126,"count":5697,"max":[1.0,1.0,1.0],"min":[-1.0,-1.0,-1.0],"type":"VEC3"},{"bufferView":75,"componentType":5125,"count":912,"max":[387.0],"min":[0.0],"type":"SCALAR"},{"bufferView":76,"componentType":5126,"count":388,"max":[2.825000047683716,2.825000047683716,0.8379999995231628],"min":[0.07500000298023224,0.07500000298023224,0.7580000162124634],"type":"VEC3"},{"bufferView":77,"componentType":5126,"count":388,"max":[1.0,1.0,1.0],"min":[-1.0,-1.0,-1.0],"type":"VEC3"},{"bufferView":78,"componentType":5125,"count":1980,"max":[705.0],"min":[0.0],"type":"SCALAR"},{"bufferView":79,"componentType":5126,"count":706,"max":[3.5399999618530275,1.5999162197113038,0.4569999873638153],"min":[2.9800000190734865,1.3000837564468384,0.15733496844768525],"type":"VEC3"},{"bufferView":80,"componentType":5126,"count":706,"max":[1.0,0.9994415640830994,1.0],"min":[-1.0,-0.9994415640830994,-1.0],"type":"VEC3"},{"bufferView":81,"componentType":5125,"count":23088,"max":[9063.0],"min":[0.0],"type":"SCALAR"},{"bufferView":82,"componentType":5126,"count":9064,"max":[2.75,2.75,0.6629999876022339],"min":[0.15000000596046449,0.15000000596046449,0.4880000054836273],"type":"VEC3"},{"bufferView":83,"componentType":5126,"count":9064,"max":[1.0,1.0,1.0],"min":[-1.0,-1.0,-1.0],"type":"VEC3"},{"bufferView":84,"componentType":5125,"count":22278,"max":[7934.0],"min":[1.0],"type":"SCALAR"},{"bufferView":85,"componentType":5126,"count":7935,"max":[3.450000047683716,3.950000047683716,0.7719510793685913],"min":[-0.550000011920929,-1.0499999523162842,-0.15362288057804109],"type":"VEC3"},{"bufferView":86,"componentType":5126,"count":7935,"max":[1.0,1.0,1.0],"min":[-1.0,-1.0,-1.0],"type":"VEC3"},{"bufferView":87,"componentType":5125,"count":8820,"max":[3586.0],"min":[0.0],"type":"SCALAR"},{"bufferView":88,"componentType":5126,"count":3587,"max":[3.2899999618530275,3.2899999618530275,0.8479999899864197],"min":[-0.38999998569488528,-0.38999998569488528,0.5067999958992004],"type":"VEC3"},{"bufferView":89,"componentType":5126,"count":3587,"max":[1.0,1.0,1.0],"min":[-1.0,-1.0,-1.0],"type":"VEC3"},{"bufferView":90,"componentType":5125,"count":13956,"max":[4741.0],"min":[0.0],"type":"SCALAR"},{"bufferView":91,"componentType":5126,"count":4742,"max":[3.700000047683716,1.6449999809265137,0.5019999742507935],"min":[3.5799999237060549,1.2549999952316285,0.1120000034570694],"type":"VEC3"},{"bufferView":92,"componentType":5126,"count":4742,"max":[1.0,1.0,1.0],"min":[-1.0,-1.0,-1.0],"type":"VEC3"}],"asset":{"generator":"SimLab GLTF","version":"2.0"},"bufferViews":[{"buffer":0,"byteLength":3600,"target":34963},{"buffer":0,"byteLength":5160,"byteOffset":3600,"byteStride":12,"target":34962},{"buffer":0,"byteLength":5160,"byteOffset":8760,"byteStride":12,"target":34962},{"buffer":0,"byteLength":144048,"byteOffset":13920,"target":34963},{"buffer":0,"byteLength":156852,"byteOffset":157968,"byteStride":12,"target":34962},{"buffer":0,"byteLength":156852,"byteOffset":314820,"byteStride":12,"target":34962},{"buffer":0,"byteLength":31776,"byteOffset":471672,"target":34963},{"buffer":0,"byteLength":25956,"byteOffset":503448,"byteStride":12,"target":34962},{"buffer":0,"byteLength":25956,"byteOffset":529404,"byteStride":12,"target":34962},{"buffer":0,"byteLength":206616,"byteOffset":555360,"target":34963},{"buffer":0,"byteLength":145896,"byteOffset":761976,"byteStride":12,"target":34962},{"buffer":0,"byteLength":145896,"byteOffset":907872,"byteStride":12,"target":34962},{"buffer":0,"byteLength":24156,"byteOffset":1053768,"target":34963},{"buffer":0,"byteLength":25740,"byteOffset":1077924,"byteStride":12,"target":34962},{"buffer":0,"byteLength":25740,"byteOffset":1103664,"byteStride":12,"target":34962},{"buffer":0,"byteLength":6336,"byteOffset":1129404,"target":34963},{"buffer":0,"byteLength":7344,"byteOffset":1135740,"byteStride":12,"target":34962},{"buffer":0,"byteLength":7344,"byteOffset":1143084,"byteStride":12,"target":34962},{"buffer":0,"byteLength":63552,"byteOffset":1150428,"target":34963},{"buffer":0,"byteLength":55104,"byteOffset":1213980,"byteStride":12,"target":34962},{"buffer":0,"byteLength":55104,"byteOffset":1269084,"byteStride":12,"target":34962},{"buffer":0,"byteLength":63552,"byteOffset":1324188,"target":34963},{"buffer":0,"byteLength":55104,"byteOffset":1387740,"byteStride":12,"target":34962},{"buffer":0,"byteLength":55104,"byteOffset":1442844,"byteStride":12,"target":34962},{"buffer":0,"byteLength":63552,"byteOffset":1497948,"target":34963},{"buffer":0,"byteLength":55104,"byteOffset":1561500,"byteStride":12,"target":34962},{"buffer":0,"byteLength":55104,"byteOffset":1616604,"byteStride":12,"target":34962},{"buffer":0,"byteLength":63552,"byteOffset":1671708,"target":34963},{"buffer":0,"byteLength":55104,"byteOffset":1735260,"byteStride":12,"target":34962},{"buffer":0,"byteLength":55104,"byteOffset":1790364,"byteStride":12,"target":34962},{"buffer":0,"byteLength":7008,"byteOffset":1845468,"target":34963},{"buffer":0,"byteLength":7968,"byteOffset":1852476,"byteStride":12,"target":34962},{"buffer":0,"byteLength":7968,"byteOffset":1860444,"byteStride":12,"target":34962},{"buffer":0,"byteLength":5616,"byteOffset":1868412,"target":34963},{"buffer":0,"byteLength":6828,"byteOffset":1874028,"byteStride":12,"target":34962},{"buffer":0,"byteLength":6828,"byteOffset":1880856,"byteStride":12,"target":34962},{"buffer":0,"byteLength":63552,"byteOffset":1887684,"target":34963},{"buffer":0,"byteLength":55104,"byteOffset":1951236,"byteStride":12,"target":34962},{"buffer":0,"byteLength":55104,"byteOffset":2006340,"byteStride":12,"target":34962},{"buffer":0,"byteLength":63552,"byteOffset":2061444,"target":34963},{"buffer":0,"byteLength":55104,"byteOffset":2124996,"byteStride":12,"target":34962},{"buffer":0,"byteLength":55104,"byteOffset":2180100,"byteStride":12,"target":34962},{"buffer":0,"byteLength":63552,"byteOffset":2235204,"target":34963},{"buffer":0,"byteLength":55104,"byteOffset":2298756,"byteStride":12,"target":34962},{"buffer":0,"byteLength":55104,"byteOffset":2353860,"byteStride":12,"target":34962},{"buffer":0,"byteLength":63552,"byteOffset":2408964,"target":34963},{"buffer":0,"byteLength":55104,"byteOffset":2472516,"byteStride":12,"target":34962},{"buffer":0,"byteLength":55104,"byteOffset":2527620,"byteStride":12,"target":34962},{"buffer":0,"byteLength":63552,"byteOffset":2582724,"target":34963},{"buffer":0,"byteLength":55104,"byteOffset":2646276,"byteStride":12,"target":34962},{"buffer":0,"byteLength":55104,"byteOffset":2701380,"byteStride":12,"target":34962},{"buffer":0,"byteLength":63552,"byteOffset":2756484,"target":34963},{"buffer":0,"byteLength":55104,"byteOffset":2820036,"byteStride":12,"target":34962},{"buffer":0,"byteLength":55104,"byteOffset":2875140,"byteStride":12,"target":34962},{"buffer":0,"byteLength":63552,"byteOffset":2930244,"target":34963},{"buffer":0,"byteLength":55104,"byteOffset":2993796,"byteStride":12,"target":34962},{"buffer":0,"byteLength":55104,"byteOffset":3048900,"byteStride":12,"target":34962},{"buffer":0,"byteLength":1680,"byteOffset":3104004,"target":34963},{"buffer":0,"byteLength":2064,"byteOffset":3105684,"byteStride":12,"target":34962},{"buffer":0,"byteLength":2064,"byteOffset":3107748,"byteStride":12,"target":34962},{"buffer":0,"byteLength":1680,"byteOffset":3109812,"target":34963},{"buffer":0,"byteLength":2064,"byteOffset":3111492,"byteStride":12,"target":34962},{"buffer":0,"byteLength":2064,"byteOffset":3113556,"byteStride":12,"target":34962},{"buffer":0,"byteLength":1680,"byteOffset":3115620,"target":34963},{"buffer":0,"byteLength":2064,"byteOffset":3117300,"byteStride":12,"target":34962},{"buffer":0,"byteLength":2064,"byteOffset":3119364,"byteStride":12,"target":34962},{"buffer":0,"byteLength":63552,"byteOffset":3121428,"target":34963},{"buffer":0,"byteLength":55104,"byteOffset":3184980,"byteStride":12,"target":34962},{"buffer":0,"byteLength":55104,"byteOffset":3240084,"byteStride":12,"target":34962},{"buffer":0,"byteLength":49560,"byteOffset":3295188,"target":34963},{"buffer":0,"byteLength":59160,"byteOffset":3344748,"byteStride":12,"target":34962},{"buffer":0,"byteLength":59160,"byteOffset":3403908,"byteStride":12,"target":34962},{"buffer":0,"byteLength":56040,"byteOffset":3463068,"target":34963},{"buffer":0,"byteLength":68364,"byteOffset":3519108,"byteStride":12,"target":34962},{"buffer":0,"byteLength":68364,"byteOffset":3587472,"byteStride":12,"target":34962},{"buffer":0,"byteLength":3648,"byteOffset":3655836,"target":34963},{"buffer":0,"byteLength":4656,"byteOffset":3659484,"byteStride":12,"target":34962},{"buffer":0,"byteLength":4656,"byteOffset":3664140,"byteStride":12,"target":34962},{"buffer":0,"byteLength":7920,"byteOffset":3668796,"target":34963},{"buffer":0,"byteLength":8472,"byteOffset":3676716,"byteStride":12,"target":34962},{"buffer":0,"byteLength":8472,"byteOffset":3685188,"byteStride":12,"target":34962},{"buffer":0,"byteLength":92352,"byteOffset":3693660,"target":34963},{"buffer":0,"byteLength":108768,"byteOffset":3786012,"byteStride":12,"target":34962},{"buffer":0,"byteLength":108768,"byteOffset":3894780,"byteStride":12,"target":34962},{"buffer":0,"byteLength":89112,"byteOffset":4003548,"target":34963},{"buffer":0,"byteLength":95220,"byteOffset":4092660,"byteStride":12,"target":34962},{"buffer":0,"byteLength":95220,"byteOffset":4187880,"byteStride":12,"target":34962},{"buffer":0,"byteLength":35280,"byteOffset":4283100,"target":34963},{"buffer":0,"byteLength":43044,"byteOffset":4318380,"byteStride":12,"target":34962},{"buffer":0,"byteLength":43044,"byteOffset":4361424,"byteStride":12,"target":34962},{"buffer":0,"byteLength":55824,"byteOffset":4404468,"target":34963},{"buffer":0,"byteLength":56904,"byteOffset":4460292,"byteStride":12,"target":34962},{"buffer":0,"byteLength":56904,"byteOffset":4517196,"byteStride":12,"target":34962}],"buffers":[{"byteLength":4574100,"uri":"Persona 3.bin"}],"extensionsUsed":["KHR_materials_pbrSpecularGlossiness"],"materials":[{"extensions":{"KHR_materials_pbrSpecularGlossiness":{"diffuseFactor":[0.9647058844566345,0.9647058844566345,0.9529411792755127,1.0],"specularFactor":[0.0,0.0,0.0],"glossinessFactor":0.5}},"name":"Glass (Clear)","alphaMode":"BLEND","doubleSided":true,"pbrMetallicRoughness":{"baseColorFactor":[0.9647058844566345,0.9647058844566345,0.9529411792755127,0.5],"metallicFactor":0.5}},{"extensions":{"KHR_materials_pbrSpecularGlossiness":{"diffuseFactor":[0.7960784435272217,0.7960784435272217,0.7960784435272217,1.0],"specularFactor":[0.0,0.0,0.0],"glossinessFactor":0.5}},"name":"Stainless Steel - Polished","alphaMode":"MASK","doubleSided":true,"pbrMetallicRoughness":{"baseColorFactor":[0.7960784435272217,0.7960784435272217,0.7960784435272217,1.0],"metallicFactor":0.5}},{"extensions":{"KHR_materials_pbrSpecularGlossiness":{"diffuseFactor":[0.6274510025978088,0.6274510025978088,0.6274510025978088,1.0],"specularFactor":[0.0,0.0,0.0],"glossinessFactor":0.5}},"name":"Opaque(160,160,160)","alphaMode":"MASK","doubleSided":true,"pbrMetallicRoughness":{"baseColorFactor":[0.6274510025978088,0.6274510025978088,0.6274510025978088,1.0],"metallicFactor":0.5}},{"extensions":{"KHR_materials_pbrSpecularGlossiness":{"diffuseFactor":[1.0,1.0,1.0,1.0],"specularFactor":[0.0,0.0,0.0],"glossinessFactor":0.5}},"name":"Satin - Plum","alphaMode":"MASK","doubleSided":true,"pbrMetallicRoughness":{"metallicFactor":0.5}},{"extensions":{"KHR_materials_pbrSpecularGlossiness":{"diffuseFactor":[0.5764706134796143,0.9529411792755127,0.8588235378265381,1.0],"specularFactor":[0.0,0.0,0.0],"glossinessFactor":0.5}},"name":"Dial Lume","alphaMode":"MASK","doubleSided":true,"pbrMetallicRoughness":{"baseColorFactor":[0.5764706134796143,0.9529411792755127,0.8588235378265381,1.0],"metallicFactor":0.5}},{"extensions":{"KHR_materials_pbrSpecularGlossiness":{"diffuseFactor":[0.6274510025978088,0.6274510025978088,0.6274510025978088,1.0],"specularFactor":[0.0,0.0,0.0],"glossinessFactor":0.5}},"name":"Steel - Satin","alphaMode":"MASK","doubleSided":true,"pbrMetallicRoughness":{"baseColorFactor":[0.6274510025978088,0.6274510025978088,0.6274510025978088,1.0],"metallicFactor":0.5}},{"extensions":{"KHR_materials_pbrSpecularGlossiness":{"diffuseFactor":[0.45098039507865908,0.772549033164978,0.8705882430076599,1.0],"specularFactor":[0.0,0.0,0.0],"glossinessFactor":0.5}},"name":"Titanium - Blue","alphaMode":"MASK","doubleSided":true,"pbrMetallicRoughness":{"baseColorFactor":[0.45098039507865908,0.772549033164978,0.8705882430076599,1.0],"metallicFactor":0.5}}],"meshes":[{"primitives":[{"attributes":{"NORMAL":2,"POSITION":1},"indices":0,"material":0,"mode":4}]},{"primitives":[{"attributes":{"NORMAL":5,"POSITION":4},"indices":3,"material":1,"mode":4}]},{"primitives":[{"attributes":{"NORMAL":8,"POSITION":7},"indices":6,"material":2,"mode":4}]},{"primitives":[{"attributes":{"NORMAL":11,"POSITION":10},"indices":9,"material":2,"mode":4}]},{"primitives":[{"attributes":{"NORMAL":14,"POSITION":13},"indices":12,"material":2,"mode":4}]},{"primitives":[{"attributes":{"NORMAL":17,"POSITION":16},"indices":15,"material":3,"mode":4}]},{"primitives":[{"attributes":{"NORMAL":20,"POSITION":19},"indices":18,"material":1,"mode":4}]},{"primitives":[{"attributes":{"NORMAL":23,"POSITION":22},"indices":21,"material":1,"mode":4}]},{"primitives":[{"attributes":{"NORMAL":26,"POSITION":25},"indices":24,"material":1,"mode":4}]},{"primitives":[{"attributes":{"NORMAL":29,"POSITION":28},"indices":27,"material":1,"mode":4}]},{"primitives":[{"attributes":{"NORMAL":32,"POSITION":31},"indices":30,"material":2,"mode":4}]},{"primitives":[{"attributes":{"NORMAL":35,"POSITION":34},"indices":33,"material":2,"mode":4}]},{"primitives":[{"attributes":{"NORMAL":38,"POSITION":37},"indices":36,"material":1,"mode":4}]},{"primitives":[{"attributes":{"NORMAL":41,"POSITION":40},"indices":39,"material":1,"mode":4}]},{"primitives":[{"attributes":{"NORMAL":44,"POSITION":43},"indices":42,"material":1,"mode":4}]},{"primitives":[{"attributes":{"NORMAL":47,"POSITION":46},"indices":45,"material":1,"mode":4}]},{"primitives":[{"attributes":{"NORMAL":50,"POSITION":49},"indices":48,"material":1,"mode":4}]},{"primitives":[{"attributes":{"NORMAL":53,"POSITION":52},"indices":51,"material":1,"mode":4}]},{"primitives":[{"attributes":{"NORMAL":56,"POSITION":55},"indices":54,"material":1,"mode":4}]},{"primitives":[{"attributes":{"NORMAL":59,"POSITION":58},"indices":57,"material":4,"mode":4}]},{"primitives":[{"attributes":{"NORMAL":62,"POSITION":61},"indices":60,"material":4,"mode":4}]},{"primitives":[{"attributes":{"NORMAL":65,"POSITION":64},"indices":63,"material":4,"mode":4}]},{"primitives":[{"attributes":{"NORMAL":68,"POSITION":67},"indices":66,"material":1,"mode":4}]},{"primitives":[{"attributes":{"NORMAL":71,"POSITION":70},"indices":69,"material":1,"mode":4}]},{"primitives":[{"attributes":{"NORMAL":74,"POSITION":73},"indices":72,"material":1,"mode":4}]},{"primitives":[{"attributes":{"NORMAL":77,"POSITION":76},"indices":75,"material":5,"mode":4}]},{"primitives":[{"attributes":{"NORMAL":80,"POSITION":79},"indices":78,"material":1,"mode":4}]},{"primitives":[{"attributes":{"NORMAL":83,"POSITION":82},"indices":81,"material":6,"mode":4}]},{"primitives":[{"attributes":{"NORMAL":86,"POSITION":85},"indices":84,"material":6,"mode":4}]},{"primitives":[{"attributes":{"NORMAL":89,"POSITION":88},"indices":87,"material":6,"mode":4}]},{"primitives":[{"attributes":{"NORMAL":92,"POSITION":91},"indices":90,"material":6,"mode":4}]}],"nodes":[{"children":[1,2],"matrix":[1.0,0.0,0.0,0.0,0.0,4.4896593387466768e-11,-1.0,0.0,0.0,1.0,4.4896593387466768e-11,0.0,0.0,0.0,0.0,1.0]},{"name":"Camera-2","rotation":[-0.7071067690849304,0.0,0.0,-0.7071067690849304],"translation":[0.01575000025331974,-0.20347188413143159,0.014500000514090062]},{"name":"Square Watch 2026 Persona 3","children":[3,56],"rotation":[-0.7071067690849304,0.0,0.0,-0.7071067690849304],"scale":[0.009999999776482582,0.009999999776482582,0.009999999776482582]},{"name":"Traditionally Made Parts","children":[4,10,12,14,16,18,20,22,24,26,28,30,32,34,36,38,40,42,44,46,50,52,53,54,55],"rotation":[0.0,0.0,0.0,-1.0]},{"name":"Sapphire","children":[5,6,7,8,9],"rotation":[0.0,0.0,0.0,-1.0]},{"name":"Body1","mesh":0,"rotation":[0.0,0.0,0.0,-1.0]},{"name":"Body3","rotation":[0.0,0.0,0.0,-1.0]},{"name":"Body4","rotation":[0.0,0.0,0.0,-1.0]},{"name":"Body5","rotation":[0.0,0.0,0.0,-1.0]},{"name":"Body6","rotation":[0.0,0.0,0.0,-1.0]},{"name":"Crown","children":[11],"matrix":[1.0,-1.6653345369377349e-16,-9.912705482475399e-17,0.0,-1.6653345369377349e-16,1.0,1.6507971161800299e-32,0.0,9.912705482475399e-17,0.0,1.0,0.0,0.1550000011920929,-0.2500000298023224,-0.09300000220537186,1.0]},{"name":"Body1","mesh":1,"rotation":[0.0,0.0,0.0,-1.0]},{"name":"Crown Seal.f3d ","children":[13],"matrix":[9.912705482475399e-17,0.0,1.0,0.0,3.0110594553769848e-16,1.0,-4.930380657631324e-32,0.0,-1.0,3.0110594553769848e-16,9.912705482475399e-17,0.0,3.3949999809265138,1.4500000476837159,0.3070000112056732,1.0]},{"name":"Body1","mesh":2,"rotation":[0.0,0.0,0.0,-1.0]},{"name":"Caseback Seal.f3d ","children":[15],"rotation":[0.0,0.0,0.0,-1.0],"translation":[1.4500000476837159,1.4500000476837159,1.609233021736145]},{"name":"Body1","mesh":3,"rotation":[0.0,0.0,0.0,-1.0]},{"name":"SW200 fitting H3.f3d ","children":[17],"matrix":[1.0,0.0,0.0,0.0,0.0,1.0,3.0814879110195777e-33,0.0,0.0,0.0,1.0,0.0,1.4500000476837159,1.4500000476837159,0.02800000086426735,1.0]},{"name":"Body1","mesh":4,"rotation":[0.0,0.0,0.0,-1.0]},{"name":"Lower Dial","children":[19],"rotation":[0.0,6.938893903907229e-18,0.0,-1.0],"translation":[1.4500000476837159,1.4500000476837159,0.4880000054836273]},{"name":"Sub-Dial","mesh":5,"rotation":[0.0,0.0,0.0,-1.0]},{"name":"Caseback and Dial Screw","children":[21],"matrix":[1.0,0.0,1.5336534864876855e-38,0.0,2.541097549293194e-20,-1.0,1.613444587674052e-23,0.0,6.5052130349130269e-18,-7.703526923007012e-34,-1.0,0.0,2.619999885559082,0.2800000011920929,0.1599999964237213,1.0]},{"name":"Body1","mesh":6,"rotation":[0.0,0.0,0.0,-1.0]},{"name":"Caseback and Dial Screw","children":[23],"matrix":[1.0,0.0,1.5520218468879016e-38,0.0,2.541097549293194e-20,-1.0,1.613444587674052e-23,0.0,6.5052130349130269e-18,1.9285454193178155e-38,-1.0,0.0,0.2800000011920929,0.2800000011920929,0.1599999964237213,1.0]},{"name":"Body1","mesh":7,"rotation":[0.0,0.0,0.0,-1.0]},{"name":"Caseback and Dial Screw","children":[25],"matrix":[1.0,0.0,1.5244718986897364e-38,0.0,2.541097549293194e-20,-1.0,1.613444587674052e-23,0.0,6.5052130349130269e-18,1.9285454193178155e-38,-1.0,0.0,2.619999885559082,2.619999885559082,0.1599999964237213,1.0]},{"name":"Body1","mesh":8,"rotation":[0.0,0.0,0.0,-1.0]},{"name":"Caseback and Dial Screw","children":[27],"matrix":[1.0,0.0,1.5244718986897364e-38,0.0,2.541097549293194e-20,-1.0,1.613444587674052e-23,0.0,6.5052130349130269e-18,1.9285454193178155e-38,-1.0,0.0,0.2800000011920929,2.619999885559082,0.1599999964237213,1.0]},{"name":"Body1","mesh":9,"rotation":[0.0,0.0,0.0,-1.0]},{"name":"Hour Hand","children":[29],"rotation":[0.0,0.0,-0.5,-0.8660253882408142],"translation":[1.4500000476837159,1.4500000476837159,0.6359999775886536]},{"name":"Hour Hand","mesh":10,"rotation":[0.0,0.0,0.0,-1.0]},{"name":"Minute Hand","children":[31],"matrix":[0.5,-0.8660253882408142,9.244463733058732e-33,0.0,0.8660253882408142,0.5,0.0,0.0,0.0,0.0,1.0,0.0,1.4500000476837159,1.4500000476837159,0.6759999990463257,1.0]},{"name":"Minute Hand","mesh":11,"rotation":[0.0,0.0,0.0,-1.0]},{"name":"Caseback and Dial Screw","children":[33],"matrix":[1.0,3.76158192263132e-37,1.79997838716371e-38,0.0,3.134020612371204e-20,-1.0,1.6835943592151926e-23,0.0,8.239936510889834e-18,-5.777615345719007e-34,-1.0,0.0,2.869999885559082,0.029999999329447748,0.2199999988079071,1.0]},{"name":"Body1","mesh":12,"rotation":[0.0,0.0,0.0,-1.0]},{"name":"Caseback and Dial Screw","children":[35],"matrix":[1.0,0.0,1.5244718986897364e-38,0.0,2.964614022920344e-20,-1.0,1.6835943592151926e-23,0.0,8.456776945386935e-18,0.0,-1.0,0.0,0.029999999329447748,0.029999999329447748,0.2199999988079071,1.0]},{"name":"Body1","mesh":13,"rotation":[0.0,0.0,0.0,-1.0]},{"name":"Caseback and Dial Screw","children":[37],"matrix":[1.0,-1.128474576789396e-36,1.734723475976807e-18,0.0,2.498745901930479e-20,-1.0,1.5432948161329114e-23,0.0,8.239936510889834e-18,-5.778069013070028e-34,-1.0,0.0,0.029999999329447748,2.869999885559082,0.2199999988079071,1.0]},{"name":"Body1","mesh":14,"rotation":[0.0,0.0,0.0,-1.0]},{"name":"Caseback and Dial Screw","children":[39],"matrix":[1.0,-0.0,1.5244718986897364e-38,0.0,2.879910728194914e-20,-1.0,1.6835943592151926e-23,0.0,8.023096076392733e-18,1.925929944387236e-34,-1.0,0.0,2.869999885559082,2.869999885559082,0.2199999988079071,1.0]},{"name":"Body1","mesh":15,"rotation":[0.0,0.0,0.0,-1.0]},{"name":"Caseback and Dial Screw","children":[41],"matrix":[1.0,0.0,-2.168404344971009e-19,0.0,2.964614022920344e-20,1.0,-1.6835943592151926e-23,0.0,8.673617379884036e-18,9.62964972193618e-35,1.0,0.0,2.619999885559082,0.2800000011920929,0.3779999911785126,1.0]},{"name":"Body1","mesh":16,"rotation":[0.0,0.0,0.0,-1.0]},{"name":"Caseback and Dial Screw","children":[43],"matrix":[1.0,0.0,-1.717326440621518e-38,0.0,3.388130496547494e-20,1.0,-1.6835943592151926e-23,0.0,9.324138683375338e-18,-2.369355800876173e-38,1.0,0.0,0.2800000011920929,0.2800000011920929,0.3779999911785126,1.0]},{"name":"Body1","mesh":17,"rotation":[0.0,0.0,0.0,-1.0]},{"name":"Caseback and Dial Screw","children":[45],"matrix":[1.0,3.76158192263132e-37,-1.5178830414797063e-18,0.0,2.752855786106769e-20,1.0,-1.6835943592151926e-23,0.0,9.974659986866641e-18,3.852071110415635e-34,1.0,0.0,2.619999885559082,2.619999885559082,0.3779999911785126,1.0]},{"name":"Body1","mesh":18,"rotation":[0.0,0.0,0.0,-1.0]},{"name":"Dial Lume","children":[47,48,49],"rotation":[0.0,0.0,0.0,-1.0]},{"name":"Body1","mesh":19,"rotation":[0.0,0.0,0.0,-1.0]},{"name":"Body2","mesh":20,"rotation":[0.0,0.0,0.0,-1.0]},{"name":"Body3","mesh":21,"rotation":[0.0,0.0,0.0,-1.0]},{"name":"Caseback and Dial Screw","children":[51],"matrix":[1.0,-7.52316384526264e-37,-1.5178830414797063e-18,0.0,3.430482143910209e-20,1.0,-1.6835943592151926e-23,0.0,1.1709383462843448e-17,-3.9672934340252205e-38,1.0,0.0,0.2800000011920929,2.619999885559082,0.376800000667572,1.0]},{"name":"Body1","mesh":22,"rotation":[0.0,0.0,0.0,-1.0]},{"name":"Case Inner","mesh":23,"rotation":[0.0,0.0,0.0,-1.0]},{"name":"Caseback","mesh":24,"rotation":[0.0,0.0,0.0,-1.0]},{"name":"Sapphire Glue","mesh":25,"rotation":[0.0,0.0,0.0,-1.0]},{"name":"Crown Tube","mesh":26,"rotation":[0.0,0.0,0.0,-1.0]},{"name":"3D Printed Parts","children":[57,60,61,62],"rotation":[0.0,0.0,0.0,-1.0]},{"name":"Dial Upper","children":[58,59],"rotation":[0.0,0.0,0.0,-1.0]},{"name":"Dial","mesh":27,"rotation":[0.0,0.0,0.0,-1.0]},{"name":"Body2","rotation":[0.0,0.0,0.0,-1.0]},{"name":"Case Outer","mesh":28,"rotation":[0.0,0.0,0.0,-1.0]},{"name":"Insert","mesh":29,"rotation":[0.0,0.0,0.0,-1.0]},{"name":"Crown Insert","mesh":30,"rotation":[0.0,0.0,0.0,-1.0]}],"scene":0,"scenes":[{"nodes":[0]}]}